<?xml version="1.0" standalone="no"?>
<!DOCTYPE svg PUBLIC "-//W3C//DTD SVG 20010904//EN"
 "http://www.w3.org/TR/2001/REC-SVG-20010904/DTD/svg10.dtd">
<svg version="1.0" xmlns="http://www.w3.org/2000/svg"
 width="512.000000pt" height="512.000000pt" viewBox="0 0 512.000000 512.000000"
 preserveAspectRatio="xMidYMid meet">

<g transform="translate(0.000000,512.000000) scale(0.100000,-0.100000)"
fill="#000000" stroke="none">
<path d="M910 1397 c0 -18 21 -37 41 -37 24 0 33 18 19 35 -15 19 -60 20 -60
2z"/>
<path d="M1017 1306 c-8 -19 20 -56 43 -56 28 0 34 18 16 45 -18 27 -51 33
-59 11z"/>
<path d="M1116 1175 c-8 -21 13 -63 35 -70 26 -8 39 2 39 29 0 42 -60 76 -74
41z"/>
<path d="M1234 1025 c-9 -23 28 -69 58 -73 35 -4 45 24 20 58 -23 30 -69 39
-78 15z"/>
<path d="M1411 916 c-26 -31 31 -79 74 -62 27 10 30 38 6 58 -28 22 -64 23
-80 4z"/>
<path d="M1828 909 c-26 -15 -22 -48 7 -61 19 -9 29 -8 50 6 57 37 2 90 -57
55z"/>
<path d="M1642 889 c-28 -11 -38 -35 -22 -54 28 -34 116 -5 95 31 -15 23 -45
33 -73 23z"/>
</g>
</svg>
